HIERARCHY
ROOT SpineBase
{
  OFFSET 0.000000 0.000000 0.000000
  CHANNELS 6 Xposition Yposition Zposition Zrotation Xrotation Yrotation
  JOINT SpineMid
  {
    OFFSET 0.000000 28.341041 0.000000
    CHANNELS 3 Zrotation Xrotation Yrotation
    JOINT SpineShoulder
    {
      OFFSET -0.105547 21.065755 -0.786913
      CHANNELS 3 Zrotation Xrotation Yrotation
      JOINT Neck
      {
        OFFSET -0.090336 6.966294 -0.555453
        CHANNELS 3 Zrotation Xrotation Yrotation
        JOINT Head
        {
          OFFSET 3.451417 11.886554 0.317224
          CHANNELS 3 Zrotation Xrotation Yrotation
          End Site
          {
            OFFSET 0 0 0
          }
        }
      }
      JOINT ShoulderLeft
      {
        OFFSET -13.547434 -3.794870 -7.857538
        CHANNELS 3 Zrotation Xrotation Yrotation
        JOINT ElbowLeft
        {
          OFFSET -5.260282 -23.348924 -0.026624
          CHANNELS 3 Zrotation Xrotation Yrotation
          JOINT WristLeft
          {
            OFFSET 0.002381 -18.619903 -3.924418
            CHANNELS 3 Zrotation Xrotation Yrotation
            JOINT HandLeft
            {
              OFFSET 0.413924 -7.168774 0.509035
              CHANNELS 3 Zrotation Xrotation Yrotation
              JOINT HandTipLeft
              {
                OFFSET -0.521283 -6.317306 -0.782868
                CHANNELS 3 Zrotation Xrotation Yrotation
                End Site
                {
                  OFFSET 0 0 0
                }
              }
              JOINT ThumbLeft
              {
                OFFSET -3.049263 -0.256857 -1.244025
                CHANNELS 3 Zrotation Xrotation Yrotation
                End Site
                {
                  OFFSET 0 0 0
                }
              }
            }
          }
        }
      }
      JOINT ShoulderRight
      {
        OFFSET 14.906281 -4.587423 3.367701
        CHANNELS 3 Zrotation Xrotation Yrotation
        JOINT ElbowRight
        {
          OFFSET 2.251470 -23.369400 3.021360
          CHANNELS 3 Zrotation Xrotation Yrotation
          JOINT WristRight
          {
            OFFSET 2.311261 -23.474152 -2.746750
            CHANNELS 3 Zrotation Xrotation Yrotation
            JOINT HandRight
            {
              OFFSET 0.099141 -5.862244 -1.939379
              CHANNELS 3 Zrotation Xrotation Yrotation
              JOINT HandTipRight
              {
                OFFSET -0.536273 -5.235764 -1.095347
                CHANNELS 3 Zrotation Xrotation Yrotation
                End Site
                {
                  OFFSET 0 0 0
                }
              }
              JOINT ThumbRight
              {
                OFFSET -1.943316 1.698764 -2.124212
                CHANNELS 3 Zrotation Xrotation Yrotation
                End Site
                {
                  OFFSET 0 0 0
                }
              }
            }
          }
        }
      }
    }
  }
  JOINT HipLeft
  {
    OFFSET -6.756175 0.968353 -5.545496
    CHANNELS 3 Zrotation Xrotation Yrotation
    JOINT KneeLeft
    {
      OFFSET -6.593904 -27.639861 5.926908
      CHANNELS 3 Zrotation Xrotation Yrotation
      JOINT AnkleLeft
      {
        OFFSET -4.262342 -33.141091 7.854593
        CHANNELS 3 Zrotation Xrotation Yrotation
        JOINT FootLeft
        {
          OFFSET 2.210274 -4.379520 -7.592607
          CHANNELS 3 Zrotation Xrotation Yrotation
          End Site
          {
            OFFSET 0 0 0
          }
        }
      }
    }
  }
  JOINT HipRight
  {
    OFFSET 6.143394 0.168818 -0.892912
    CHANNELS 3 Zrotation Xrotation Yrotation
    JOINT KneeRight
    {
      OFFSET -4.303549 -28.414147 8.317045
      CHANNELS 3 Zrotation Xrotation Yrotation
      JOINT AnkleRight
      {
        OFFSET -5.225457 -33.139790 10.060480
        CHANNELS 3 Zrotation Xrotation Yrotation
        JOINT FootRight
        {
          OFFSET 2.663530 -2.682250 -10.770281
          CHANNELS 3 Zrotation Xrotation Yrotation
          End Site
          {
            OFFSET 0 0 0
          }
        }
      }
    }
  }
}
MOTION
Frames: 11
Frame Time: 0.033333
33.575854 69.246517 356.727077 -0.547225 2.285251 -12.355487 -0.231997 0.248373 12.350831 -0.215267 -0.003342 -0.032174 4.713262 0.976616 -1.025326 0.000000 0.000000 0.000000 1.853088 -2.353138 0.051235 -1.705564 0.437722 0.216796 4.838396 5.068085 0.301060 -7.358015 -0.081129 -1.031472 0.000000 0.000000 0.000000 0.000000 0.000000 0.000000 52.135375 43.730014 -9.030835 152.679834 42.267810 83.557936 13.867023 -21.123833 7.805905 -3.726996 -3.679652 -40.378807 0.000000 0.000000 0.000000 0.000000 0.000000 0.000000 4.059624 -2.680050 13.412318 -3.112074 -0.717725 -0.677100 -1.909382 5.406562 5.231554 0.000000 0.000000 0.000000 3.216939 -4.163942 13.373178 -2.637205 0.968455 -0.848352 -21.460896 -50.374308 -22.746779 0.000000 0.000000 0.000000
33.601377 69.276860 356.688210 -0.534330 2.307621 -12.388715 -0.239930 0.226289 12.383503 -0.223620 -0.008193 -0.033093 4.826208 1.059109 -1.052526 0.000000 0.000000 0.000000 1.987120 -2.382359 0.064722 -2.053615 0.530227 0.258071 5.039667 4.798628 0.255078 -7.540620 -0.046633 -0.973508 0.000000 0.000000 0.000000 0.000000 0.000000 0.000000 52.021868 43.984676 -9.112280 152.934240 42.338962 82.146910 15.681532 -20.467719 10.601496 -4.022954 -3.393779 -40.097615 0.000000 0.000000 0.000000 0.000000 0.000000 0.000000 4.046535 -2.748906 13.454469 -3.066329 -0.705137 -0.672262 -1.866183 1.556180 3.333805 0.000000 0.000000 0.000000 3.204791 -4.197502 13.405849 -2.629380 0.937425 -0.841239 -19.919111 -50.153260 -18.490932 0.000000 0.000000 0.000000
33.639488 69.316900 356.644233 -0.499107 2.340848 -12.426460 -0.257361 0.189657 12.420252 -0.233459 -0.017997 -0.033856 4.913190 1.183487 -1.092586 0.000000 0.000000 0.000000 2.184835 -2.401977 0.079582 -2.514352 0.623279 0.309256 5.185586 4.481193 0.196610 -7.073994 1.197976 -1.002415 0.000000 0.000000 0.000000 0.000000 0.000000 0.000000 51.676679 44.203290 -9.113026 153.275712 42.597581 82.243297 17.172601 -18.818624 14.599669 -6.091631 -4.815152 -44.194204 0.000000 0.000000 0.000000 0.000000 0.000000 0.000000 3.996376 -2.851312 13.499667 -2.918414 -0.640671 -0.652601 -2.895375 -10.543613 -1.994664 0.000000 0.000000 0.000000 3.155790 -4.252663 13.436985 -2.605369 0.907199 -0.829859 -26.727943 -55.228864 -26.975900 0.000000 0.000000 0.000000
33.660985 69.342634 356.612057 -0.475783 2.363624 -12.453525 -0.268020 0.164389 12.446671 -0.238817 -0.024377 -0.034216 4.956952 1.319438 -1.136741 0.000000 0.000000 0.000000 2.280601 -2.522203 0.113377 -2.718989 0.955618 0.310636 4.866242 3.885541 0.162660 -6.236045 2.602879 -0.995092 0.000000 0.000000 0.000000 0.000000 0.000000 0.000000 51.232231 44.336903 -9.042544 153.528910 42.625635 82.422444 19.445650 -14.959688 22.677114 -10.468548 -6.655645 -52.499641 0.000000 0.000000 0.000000 0.000000 0.000000 0.000000 3.999676 -2.934615 13.545946 -2.827790 -0.528953 -0.651427 -3.460238 -12.851332 -2.707846 0.000000 0.000000 0.000000 3.134346 -4.288741 13.463546 -2.578226 0.879082 -0.817990 -25.896030 -54.516700 -26.225752 0.000000 0.000000 0.000000
33.669498 69.354679 356.595322 -0.468940 2.365460 -12.472382 -0.269313 0.150761 12.465254 -0.240768 -0.029205 -0.034468 5.023465 1.461470 -1.180665 0.000000 0.000000 0.000000 2.375769 -2.654418 0.152493 -2.855544 1.245485 0.293533 4.817712 3.484361 0.152973 -5.964670 3.449597 -1.004050 0.000000 0.000000 0.000000 0.000000 0.000000 0.000000 50.876518 44.326818 -8.938579 153.462151 43.172883 86.697243 19.809259 -12.822101 26.283038 -15.957405 -8.067806 -62.248697 0.000000 0.000000 0.000000 0.000000 0.000000 0.000000 4.026137 -2.980912 13.583893 -2.651299 -0.389363 -0.633632 -4.865881 -21.865783 -8.345806 0.000000 0.000000 0.000000 3.130832 -4.307092 13.484443 -2.549030 0.891398 -0.811505 -20.121364 -49.674918 -19.760358 0.000000 0.000000 0.000000
33.678507 69.352351 356.588750 -0.458840 2.362538 -12.404664 -0.267916 0.145408 12.397598 -0.238702 -0.029524 -0.033884 5.174340 1.640590 -1.242144 0.000000 0.000000 0.000000 2.457540 -2.847558 0.203635 -3.017700 1.734900 0.275156 4.578156 3.088375 0.139177 -6.030395 3.725572 -0.922109 0.000000 0.000000 0.000000 0.000000 0.000000 0.000000 50.556950 44.092123 -8.746942 153.174958 43.782593 92.736206 18.552864 -13.501550 24.009645 -19.685942 -7.811869 -68.332921 0.000000 0.000000 0.000000 0.000000 0.000000 0.000000 4.005453 -2.998329 13.516545 -2.523539 -0.308184 -0.616946 -3.713426 -18.207589 -7.471044 0.000000 0.000000 0.000000 3.097219 -4.365993 13.415044 -2.495109 0.960800 -0.806134 -11.261787 -37.241956 -10.125655 0.000000 0.000000 0.000000
33.672494 69.332729 356.594392 -0.463445 2.337362 -12.326822 -0.262390 0.151153 12.319920 -0.234251 -0.025067 -0.033383 5.367845 1.877599 -1.321779 0.000000 0.000000 0.000000 2.433686 -2.985898 0.238878 -2.888703 2.079215 0.223053 4.456180 2.665196 0.165319 -5.921049 4.156997 -0.911912 0.000000 0.000000 0.000000 0.000000 0.000000 0.000000 50.464925 43.804566 -8.603685 152.590769 44.556580 99.707781 13.756418 -18.340228 11.732284 -15.008524 -8.368374 -60.846463 0.000000 0.000000 0.000000 0.000000 0.000000 0.000000 4.007552 -2.965211 13.436629 -2.530471 -0.241207 -0.626252 -3.596519 -20.001382 -9.499684 0.000000 0.000000 0.000000 3.081434 -4.367808 13.334903 -2.441104 0.979793 -0.793948 -6.883159 -27.050018 -4.419086 0.000000 0.000000 0.000000
33.657364 69.297492 356.605575 -0.481551 2.312207 -12.202752 -0.248077 0.174586 12.196668 -0.227900 -0.012430 -0.032485 5.604397 2.044735 -1.386261 0.000000 0.000000 0.000000 2.265119 -3.156826 0.269604 -2.467048 2.412683 0.132064 4.324983 2.581679 0.237287 -6.095779 3.322502 -0.889187 0.000000 0.000000 0.000000 0.000000 0.000000 0.000000 50.557167 43.569060 -8.526017 152.030259 45.293378 104.924848 7.927320 -23.728982 -3.048694 -9.973377 -6.688967 -50.720805 0.000000 0.000000 0.000000 0.000000 0.000000 0.000000 4.020660 -2.923580 13.309010 -2.694594 -0.154716 -0.672481 -1.552026 -13.213929 -7.110473 0.000000 0.000000 0.000000 3.069803 -4.385329 13.208420 -2.345566 1.079694 -0.782716 -4.905394 -20.473143 -1.275291 0.000000 0.000000 0.000000
33.643399 69.277587 356.617599 -0.489458 2.303457 -12.001140 -0.234959 0.203101 11.996170 -0.219623 0.007553 -0.030699 5.727695 2.115029 -1.424703 0.000000 0.000000 0.000000 1.961867 -3.304808 0.280591 -1.807052 2.577269 0.019358 4.147166 1.607676 0.299843 -5.247399 3.890642 -0.897569 0.000000 0.000000 0.000000 0.000000 0.000000 0.000000 50.725317 43.511358 -8.537846 151.636527 46.069171 108.174576 2.016946 -28.322201 -17.005185 -11.019023 -3.558663 -47.013615 0.000000 0.000000 0.000000 0.000000 0.000000 0.000000 3.995864 -2.868797 13.088473 -2.903805 -0.069147 -0.725419 -1.121196 -8.395128 -3.719500 0.000000 0.000000 0.000000 3.065019 -4.419890 13.011536 -2.307650 1.108468 -0.776049 -3.990357 -16.455371 1.096288 0.000000 0.000000 0.000000
33.634107 69.260947 356.633754 -0.496119 2.291962 -11.804624 -0.217225 0.239386 11.801168 -0.203770 0.027216 -0.027820 5.769233 2.141487 -1.449198 0.000000 0.000000 0.000000 1.772970 -3.394183 0.281354 -1.464693 2.623713 -0.036631 3.729245 1.018865 0.300861 -5.339587 3.918322 -0.725440 0.000000 0.000000 0.000000 0.000000 0.000000 0.000000 50.782456 43.648231 -8.607230 151.575193 46.851581 109.692342 -3.452526 -31.149647 -28.365726 -9.065514 -1.139131 -39.707582 0.000000 0.000000 0.000000 0.000000 0.000000 0.000000 3.967178 -2.798503 12.869296 -3.092618 -0.123278 -0.754670 -0.963812 -4.646956 -1.189511 0.000000 0.000000 0.000000 3.040843 -4.441611 12.811863 -2.263509 1.045547 -0.753982 -5.131743 -20.619563 0.816007 0.000000 0.000000 0.000000
33.619756 69.241751 356.649181 -0.504890 2.287626 -11.593946 -0.205100 0.267173 11.591520 -0.193069 0.043277 -0.025951 5.726033 2.117971 -1.451763 0.000000 0.000000 0.000000 1.618485 -3.394101 0.264317 -1.208403 2.523941 -0.059301 3.490850 1.049330 0.310542 -4.462420 4.155051 -0.826187 0.000000 0.000000 0.000000 0.000000 0.000000 0.000000 50.943879 44.112498 -8.850982 151.942224 47.434617 107.702320 -4.399247 -32.444232 -31.236332 -10.803146 -0.246717 -39.148925 0.000000 0.000000 0.000000 0.000000 0.000000 0.000000 3.962558 -2.732472 12.642163 -3.329240 -0.236177 -0.787267 -0.378281 -3.354951 -1.088281 0.000000 0.000000 0.000000 3.016308 -4.479664 12.598371 -2.200258 0.982557 -0.726567 -6.067407 -23.781728 0.252947 0.000000 0.000000 0.000000
